#define logo_width 128
#define logo_height 64
static unsigned char logo_bits[] = {
   0x00, 0x00, 0x00, 0x00, 0x00, 0x00, 0x00, 0x00, 0x00, 0x00, 0x00, 0x00,
   0x00, 0x00, 0x00, 0x00, 0x00, 0x00, 0x00, 0x00, 0x00, 0x00, 0x00, 0x00,
   0x00, 0x00, 0x00, 0x00, 0x00, 0x00, 0x00, 0x00, 0x00, 0x00, 0x00, 0x00,
   0x00, 0x00, 0x00, 0x00, 0x00, 0x00, 0x00, 0x00, 0x00, 0x00, 0x00, 0x00,
   0x00, 0x00, 0x00, 0x00, 0x00, 0x00, 0x00, 0x00, 0x00, 0x00, 0x00, 0x00,
   0x00, 0x00, 0x00, 0x00, 0x00, 0x00, 0x00, 0x00, 0x00, 0x00, 0x00, 0x00,
   0x00, 0x00, 0x00, 0x00, 0x00, 0x00, 0x00, 0x00, 0x00, 0x00, 0x00, 0x00,
   0x00, 0x00, 0x00, 0x00, 0x00, 0x00, 0x00, 0x00, 0x00, 0x00, 0x00, 0x00,
   0x00, 0x00, 0x00, 0x00, 0x00, 0x00, 0x00, 0x00, 0x00, 0x00, 0x00, 0x00,
   0x00, 0x00, 0x00, 0x00, 0x00, 0x00, 0x00, 0x00, 0x00, 0x00, 0x00, 0x00,
   0x00, 0x00, 0x00, 0x00, 0x00, 0x00, 0x00, 0x00, 0x00, 0x00, 0x00, 0x00,
   0x00, 0x00, 0x00, 0x00, 0x00, 0x00, 0x00, 0x00, 0x00, 0x00, 0x00, 0x00,
   0x00, 0x00, 0x00, 0x00, 0x00, 0x00, 0x00, 0x00, 0x00, 0x00, 0x00, 0x00,
   0x00, 0x00, 0x00, 0x00, 0x00, 0x00, 0x00, 0x00, 0x00, 0x00, 0x00, 0x00,
   0x00, 0x00, 0x00, 0x00, 0x00, 0x00, 0x1e, 0x00, 0xfc, 0xe0, 0x07, 0x00,
   0x00, 0x00, 0x00, 0x00, 0x00, 0x80, 0x07, 0x00, 0x00, 0x00, 0x1e, 0x00,
   0xfc, 0xe0, 0x07, 0x00, 0x00, 0x00, 0x00, 0x00, 0x00, 0x80, 0x07, 0x00,
   0x00, 0x00, 0x1e, 0x00, 0xfc, 0xf1, 0x07, 0x00, 0x00, 0x00, 0x00, 0x00,
   0x00, 0x80, 0x07, 0x00, 0x00, 0x00, 0x1e, 0x00, 0xfc, 0xf1, 0x07, 0x00,
   0x00, 0x00, 0x00, 0x00, 0x00, 0x80, 0x07, 0x00, 0x00, 0x00, 0x1e, 0x00,
   0xfc, 0xf1, 0x07, 0x7e, 0xe0, 0xf1, 0xe0, 0x07, 0xf0, 0x81, 0x07, 0x7e,
   0x00, 0x1f, 0x1e, 0x1e, 0xbc, 0xbb, 0x07, 0xff, 0xe0, 0xf1, 0xf0, 0x0f,
   0xfc, 0x83, 0x87, 0xff, 0xc0, 0x3f, 0x1e, 0x0f, 0xbc, 0xbf, 0x87, 0xe7,
   0xe1, 0xf1, 0x78, 0x08, 0x9e, 0x87, 0x87, 0xe0, 0xe1, 0x21, 0x9e, 0x07,
   0xbc, 0xbf, 0xc7, 0xc3, 0xe3, 0xf1, 0x78, 0x00, 0x0f, 0x8f, 0x07, 0xe0,
   0xf1, 0x00, 0xde, 0x03, 0x3c, 0x9f, 0xc7, 0xc3, 0xe3, 0xf1, 0xf8, 0x07,
   0x0f, 0x8f, 0x07, 0xff, 0xf1, 0x00, 0xfe, 0x01, 0x3c, 0x9f, 0xc7, 0xc3,
   0xe3, 0xf1, 0xf0, 0x0f, 0xff, 0x8f, 0x87, 0xff, 0xf1, 0x00, 0xfe, 0x00,
   0x3c, 0x8e, 0xc7, 0xc3, 0xe3, 0xf1, 0x80, 0x1f, 0xff, 0x8f, 0xc7, 0xe3,
   0xf1, 0x00, 0xfe, 0x01, 0x3c, 0x8e, 0xc7, 0xc3, 0xe3, 0xf1, 0x00, 0x1e,
   0x0f, 0x80, 0xc7, 0xe3, 0xf1, 0x01, 0xde, 0x07, 0x3c, 0x80, 0x87, 0xe7,
   0xe1, 0xf9, 0x18, 0x1e, 0x1e, 0x84, 0xc7, 0xf3, 0xe1, 0x21, 0x9e, 0x07,
   0x3c, 0x80, 0x07, 0xff, 0xc0, 0xf7, 0xf8, 0x0f, 0xfc, 0x87, 0x87, 0xff,
   0xc1, 0x3f, 0x1e, 0x1f, 0x3c, 0x80, 0x07, 0x7e, 0x80, 0xf7, 0xe0, 0x07,
   0xf8, 0x83, 0x07, 0xe7, 0x01, 0x1f, 0x1e, 0x1e, 0x00, 0x00, 0x00, 0x00,
   0x00, 0x00, 0x00, 0x00, 0x00, 0x80, 0x07, 0x00, 0x00, 0x00, 0x00, 0x00,
   0x00, 0x00, 0x00, 0x00, 0x00, 0x00, 0x00, 0x00, 0x00, 0xc0, 0x03, 0x00,
   0x00, 0x00, 0x00, 0x00, 0x00, 0x00, 0x00, 0x00, 0x00, 0x00, 0x00, 0x00,
   0x00, 0xf0, 0x03, 0x00, 0x00, 0x00, 0x00, 0x00, 0x00, 0x00, 0x00, 0x00,
   0x00, 0x00, 0x00, 0x00, 0x00, 0xf0, 0x00, 0x00, 0x00, 0x00, 0x00, 0x00,
   0x00, 0x00, 0x00, 0x00, 0x00, 0x00, 0x00, 0x00, 0x00, 0x00, 0x00, 0x00,
   0x00, 0x00, 0x00, 0x00, 0x00, 0x00, 0x00, 0x00, 0x00, 0x00, 0x00, 0x00,
   0x00, 0x00, 0x00, 0x00, 0x00, 0x00, 0x00, 0x00, 0x00, 0x00, 0x00, 0x00,
   0x00, 0x00, 0x00, 0x00, 0x00, 0x00, 0x00, 0x00, 0x00, 0x00, 0x00, 0x00,
   0x00, 0x00, 0x00, 0x00, 0x00, 0x00, 0x00, 0x00, 0x00, 0x00, 0x00, 0x00,
   0x00, 0x00, 0x00, 0x00, 0x00, 0x00, 0x00, 0x00, 0x00, 0x00, 0x00, 0x00,
   0x00, 0x00, 0x00, 0x00, 0x00, 0x00, 0x00, 0x00, 0x00, 0x00, 0x00, 0x00,
   0x00, 0x00, 0x00, 0x00, 0x00, 0x00, 0x00, 0x00, 0x00, 0x00, 0x00, 0x00,
   0x00, 0x00, 0x00, 0x00, 0x00, 0x00, 0x00, 0x00, 0x00, 0x00, 0x00, 0x00,
   0x00, 0x00, 0x00, 0x00, 0x00, 0x00, 0x00, 0x00, 0x00, 0x00, 0x00, 0x00,
   0x00, 0x00, 0x00, 0x00, 0x00, 0x00, 0x00, 0x00, 0x00, 0x00, 0x00, 0x00,
   0x00, 0x00, 0x00, 0x00, 0x00, 0x00, 0x00, 0x00, 0x00, 0x00, 0x00, 0x00,
   0x00, 0x00, 0x00, 0x00, 0x00, 0x00, 0x00, 0x00, 0x00, 0x00, 0x00, 0x00,
   0x00, 0x00, 0x00, 0x00, 0x00, 0x00, 0x00, 0x00, 0x00, 0x00, 0x00, 0x00,
   0x00, 0x00, 0x00, 0x00, 0x00, 0x00, 0x00, 0x00, 0x30, 0x00, 0x00, 0x00,
   0x00, 0x00, 0x00, 0x00, 0x00, 0x00, 0x00, 0x00, 0x00, 0xcc, 0x00, 0x00,
   0x30, 0x00, 0x00, 0x70, 0x70, 0x00, 0x00, 0x00, 0x80, 0xc3, 0x00, 0x00,
   0x00, 0xcc, 0x00, 0x00, 0x30, 0x00, 0x00, 0xf0, 0x78, 0x00, 0x00, 0x00,
   0x80, 0xc3, 0x00, 0x00, 0x00, 0x0c, 0x00, 0x00, 0xb0, 0x63, 0x30, 0xf0,
   0x78, 0x78, 0xec, 0x78, 0x80, 0xc7, 0xf0, 0x30, 0xc6, 0xcc, 0xec, 0x01,
   0x70, 0xc6, 0x18, 0xb0, 0x6d, 0xc4, 0x1c, 0x8c, 0x80, 0xc5, 0x98, 0x31,
   0xc6, 0xcc, 0x1c, 0x03, 0x30, 0xcc, 0x18, 0xb0, 0x6d, 0xc0, 0x0c, 0x06,
   0x80, 0xcd, 0x0c, 0x63, 0x6f, 0xcc, 0x0c, 0x03, 0x30, 0xcc, 0x18, 0x30,
   0x67, 0xfc, 0x0c, 0x06, 0x80, 0xd9, 0xfc, 0x63, 0x6f, 0xcc, 0x0c, 0x03,
   0x30, 0x8c, 0x09, 0x30, 0x67, 0xc6, 0x0c, 0x06, 0x80, 0xd1, 0x0c, 0x60,
   0x6d, 0xcc, 0x0c, 0x03, 0x30, 0x8c, 0x0d, 0x30, 0x62, 0xc6, 0x0c, 0x06,
   0x80, 0xf1, 0x0c, 0xc0, 0x39, 0xcc, 0x0c, 0x03, 0x70, 0x06, 0x0f, 0x30,
   0x60, 0xe6, 0x0c, 0x8c, 0x80, 0xe1, 0x18, 0xc2, 0x39, 0xcc, 0x0c, 0x03,
   0xb0, 0x03, 0x07, 0x30, 0x60, 0xdc, 0x0c, 0x78, 0x80, 0xe1, 0xf0, 0xc1,
   0x39, 0xcc, 0x0c, 0x03, 0x00, 0x00, 0x06, 0x00, 0x00, 0x00, 0x00, 0x00,
   0x00, 0x00, 0x00, 0x00, 0x00, 0x00, 0x00, 0x00, 0x00, 0x00, 0x03, 0x00,
   0x00, 0x00, 0x00, 0x00, 0x00, 0x00, 0x00, 0x00, 0x00, 0x00, 0x00, 0x00,
   0x00, 0xc0, 0x01, 0x00, 0x00, 0x00, 0x00, 0x00, 0x00, 0x00, 0x00, 0x00,
   0x00, 0x00, 0x00, 0x00, 0x00, 0x00, 0x00, 0x00, 0x00, 0x00, 0x00, 0x00,
   0x00, 0x00, 0x00, 0x00, 0x00, 0x00, 0x00, 0x00, 0x00, 0x00, 0x00, 0x00,
   0x00, 0x00, 0x00, 0x00, 0x00, 0x00, 0x00, 0x00, 0x00, 0x00, 0x00, 0x00,
   0x00, 0x00, 0x00, 0x00, 0x00, 0x00, 0x00, 0x00, 0x00, 0x00, 0x00, 0x00,
   0x00, 0x00, 0x00, 0x00, 0x00, 0x00, 0x00, 0x00, 0x00, 0x00, 0x00, 0x00,
   0x00, 0x00, 0x00, 0x00, 0x00, 0x00, 0x00, 0x00, 0x00, 0x00, 0x00, 0x00,
   0x00, 0x00, 0x00, 0x00, 0x00, 0x00, 0x00, 0x00, 0x00, 0x00, 0x00, 0x00,
   0x00, 0x00, 0x00, 0x00, 0x00, 0x00, 0x00, 0x00, 0x00, 0x00, 0x00, 0x00,
   0x00, 0x00, 0x00, 0x00, 0x00, 0x00, 0x00, 0x00, 0x00, 0x00, 0x00, 0x00,
   0x00, 0x00, 0x00, 0x00, 0x00, 0x00, 0x00, 0x00, 0x00, 0x00, 0x00, 0x00,
   0x00, 0x00, 0x00, 0x00, 0x00, 0x00, 0x00, 0x00, 0x00, 0x00, 0x00, 0x00,
   0x00, 0x00, 0x00, 0x00, 0x00, 0x00, 0x00, 0x00, 0x00, 0x00, 0x00, 0x00,
   0x00, 0x00, 0x00, 0x00 };
